<?xml version="1.0" encoding="utf-8"?>
<!-- Generator: Adobe Illustrator 24.2.0, SVG Export Plug-In . SVG Version: 6.00 Build 0)  -->
<svg version="1.1" id="Layer_1" xmlns="http://www.w3.org/2000/svg" xmlns:xlink="http://www.w3.org/1999/xlink" x="0px" y="0px"
	 viewBox="0 0 177.48 180" style="enable-background:new 0 0 177.48 180;" xml:space="preserve">
<style type="text/css">
	.st0{fill:#231F20;}
	.st1{fill:none;stroke:#231F20;stroke-miterlimit:10;}
	.st2{clip-path:url(#SVGID_2_);}
</style>
<g>
	<defs>
		<circle id="SVGID_1_" cx="89.34" cy="89.85" r="85.71"/>
	</defs>
	<clipPath id="SVGID_2_">
		<use xlink:href="#SVGID_1_"  style="overflow:visible;"/>
	</clipPath>
	<g class="st2">
		<polyline class="st1" points="-23.17,-24.24 9.61,8.64 42.5,-24.24 75.28,8.64 108.17,-24.24 140.94,8.64 173.83,-24.24 
			206.61,8.64 239.5,-24.24 		"/>
		<polyline class="st1" points="-23.17,-17.72 9.61,15.17 42.5,-17.72 75.28,15.17 108.17,-17.72 140.94,15.17 173.83,-17.72 
			206.61,15.17 239.5,-17.72 		"/>
		<polyline class="st1" points="-23.17,-11.19 9.61,21.7 42.5,-11.19 75.28,21.7 108.17,-11.19 140.94,21.7 173.83,-11.19 
			206.61,21.7 239.5,-11.19 		"/>
		<polyline class="st1" points="-23.17,-4.66 9.61,28.22 42.5,-4.66 75.28,28.22 108.17,-4.66 140.94,28.22 173.83,-4.66 
			206.61,28.22 239.5,-4.66 		"/>
		<polyline class="st1" points="-23.17,1.86 9.61,34.75 42.5,1.86 75.28,34.75 108.17,1.86 140.94,34.75 173.83,1.86 206.61,34.75 
			239.5,1.86 		"/>
		<polyline class="st1" points="-23.17,8.39 9.61,41.28 42.5,8.39 75.28,41.28 108.17,8.39 140.94,41.28 173.83,8.39 206.61,41.28 
			239.5,8.39 		"/>
		<polyline class="st1" points="-23.17,14.92 9.61,47.8 42.5,14.92 75.28,47.8 108.17,14.92 140.94,47.8 173.83,14.92 206.61,47.8 
			239.5,14.92 		"/>
		<polyline class="st1" points="-23.17,21.44 9.61,54.33 42.5,21.44 75.28,54.33 108.17,21.44 140.94,54.33 173.83,21.44 
			206.61,54.33 239.5,21.44 		"/>
		<polyline class="st1" points="-23.17,27.97 9.61,60.86 42.5,27.97 75.28,60.86 108.17,27.97 140.94,60.86 173.83,27.97 
			206.61,60.86 239.5,27.97 		"/>
		<polyline class="st1" points="-23.17,34.5 9.61,67.38 42.5,34.5 75.28,67.38 108.17,34.5 140.94,67.38 173.83,34.5 206.61,67.38 
			239.5,34.5 		"/>
		<polyline class="st1" points="-23.17,41.02 9.61,73.91 42.5,41.02 75.28,73.91 108.17,41.02 140.94,73.91 173.83,41.02 
			206.61,73.91 239.5,41.02 		"/>
		<polyline class="st1" points="-23.17,47.55 9.61,80.44 42.5,47.55 75.28,80.44 108.17,47.55 140.94,80.44 173.83,47.55 
			206.61,80.44 239.5,47.55 		"/>
		<polyline class="st1" points="-23.17,54.08 9.61,86.96 42.5,54.08 75.28,86.96 108.17,54.08 140.94,86.96 173.83,54.08 
			206.61,86.96 239.5,54.08 		"/>
		<polyline class="st1" points="-23.17,60.6 9.61,93.49 42.5,60.6 75.28,93.49 108.17,60.6 140.94,93.49 173.83,60.6 206.61,93.49 
			239.5,60.6 		"/>
		<polyline class="st1" points="-23.17,67.13 9.61,100.02 42.5,67.13 75.28,100.02 108.17,67.13 140.94,100.02 173.83,67.13 
			206.61,100.02 239.5,67.13 		"/>
		<polyline class="st1" points="-23.17,73.66 9.61,106.54 42.5,73.66 75.28,106.54 108.17,73.66 140.94,106.54 173.83,73.66 
			206.61,106.54 239.5,73.66 		"/>
		<polyline class="st1" points="-23.17,80.18 9.61,113.07 42.5,80.18 75.28,113.07 108.17,80.18 140.94,113.07 173.83,80.18 
			206.61,113.07 239.5,80.18 		"/>
		<polyline class="st1" points="-23.17,86.71 9.61,119.6 42.5,86.71 75.28,119.6 108.17,86.71 140.94,119.6 173.83,86.71 
			206.61,119.6 239.5,86.71 		"/>
		<polyline class="st1" points="-23.17,93.24 9.61,126.12 42.5,93.24 75.28,126.12 108.17,93.24 140.94,126.12 173.83,93.24 
			206.61,126.12 239.5,93.24 		"/>
		<polyline class="st1" points="-23.17,99.76 9.61,132.65 42.5,99.76 75.28,132.65 108.17,99.76 140.94,132.65 173.83,99.76 
			206.61,132.65 239.5,99.76 		"/>
		<polyline class="st1" points="-23.17,106.29 9.61,139.18 42.5,106.29 75.28,139.18 108.17,106.29 140.94,139.18 173.83,106.29 
			206.61,139.18 239.5,106.29 		"/>
		<polyline class="st1" points="-23.17,112.82 9.61,145.7 42.5,112.82 75.28,145.7 108.17,112.82 140.94,145.7 173.83,112.82 
			206.61,145.7 239.5,112.82 		"/>
		<polyline class="st1" points="-23.17,119.34 9.61,152.23 42.5,119.34 75.28,152.23 108.17,119.34 140.94,152.23 173.83,119.34 
			206.61,152.23 239.5,119.34 		"/>
		<polyline class="st1" points="-23.17,125.87 9.61,158.76 42.5,125.87 75.28,158.76 108.17,125.87 140.94,158.76 173.83,125.87 
			206.61,158.76 239.5,125.87 		"/>
		<polyline class="st1" points="-23.17,132.4 9.61,165.28 42.5,132.4 75.28,165.28 108.17,132.4 140.94,165.28 173.83,132.4 
			206.61,165.28 239.5,132.4 		"/>
		<polyline class="st1" points="-23.17,138.92 9.61,171.81 42.5,138.92 75.28,171.81 108.17,138.92 140.94,171.81 173.83,138.92 
			206.61,171.81 239.5,138.92 		"/>
		<polyline class="st1" points="-23.17,145.45 9.61,178.34 42.5,145.45 75.28,178.34 108.17,145.45 140.94,178.34 173.83,145.45 
			206.61,178.34 239.5,145.45 		"/>
		<polyline class="st1" points="-23.17,151.98 9.61,184.86 42.5,151.98 75.28,184.86 108.17,151.98 140.94,184.86 173.83,151.98 
			206.61,184.86 239.5,151.98 		"/>
		<polyline class="st1" points="-23.17,158.5 9.61,191.39 42.5,158.5 75.28,191.39 108.17,158.5 140.94,191.39 173.83,158.5 
			206.61,191.39 239.5,158.5 		"/>
		<polyline class="st1" points="-23.17,165.03 9.61,197.92 42.5,165.03 75.28,197.92 108.17,165.03 140.94,197.92 173.83,165.03 
			206.61,197.92 239.5,165.03 		"/>
		<polyline class="st1" points="-23.17,171.56 9.61,204.44 42.5,171.56 75.28,204.44 108.17,171.56 140.94,204.44 173.83,171.56 
			206.61,204.44 239.5,171.56 		"/>
	</g>
</g>
</svg>
