<?xml version="1.0" encoding="utf-8"?>
<!-- Generator: Adobe Illustrator 24.2.0, SVG Export Plug-In . SVG Version: 6.00 Build 0)  -->
<svg version="1.1" id="Layer_1" xmlns="http://www.w3.org/2000/svg" xmlns:xlink="http://www.w3.org/1999/xlink" x="0px" y="0px"
	 viewBox="0 0 177.48 180" style="enable-background:new 0 0 177.48 180;" xml:space="preserve">
<style type="text/css">
	.st0{fill:#231F20;}
	.st1{fill:none;stroke:#231F20;stroke-miterlimit:10;}
	.st2{clip-path:url(#SVGID_2_);}
	.st3{clip-path:url(#SVGID_4_);}
	.st4{clip-path:url(#SVGID_6_);}
</style>
<g>
	<defs>
		<polygon id="SVGID_5_" points="82.74,4.29 3.1,4.29 3.06,4.34 3.06,84.07 94.69,175.71 174.38,175.71 174.42,175.66 174.42,95.97 
					"/>
	</defs>
	<clipPath id="SVGID_2_">
		<use xlink:href="#SVGID_5_"  style="overflow:visible;"/>
	</clipPath>
	<g class="st2">
		<line class="st1" x1="0" y1="-12.67" x2="0" y2="192.67"/>
		<line class="st1" x1="6.22" y1="-12.67" x2="6.22" y2="192.67"/>
		<line class="st1" x1="12.44" y1="-12.67" x2="12.44" y2="192.67"/>
		<line class="st1" x1="18.67" y1="-12.67" x2="18.67" y2="192.67"/>
		<line class="st1" x1="24.89" y1="-12.67" x2="24.89" y2="192.67"/>
		<line class="st1" x1="31.11" y1="-12.67" x2="31.11" y2="192.67"/>
		<line class="st1" x1="37.33" y1="-12.67" x2="37.33" y2="192.67"/>
		<line class="st1" x1="43.56" y1="-12.67" x2="43.56" y2="192.67"/>
		<line class="st1" x1="49.78" y1="-12.67" x2="49.78" y2="192.67"/>
		<line class="st1" x1="56" y1="-12.67" x2="56" y2="192.67"/>
		<line class="st1" x1="62.22" y1="-12.67" x2="62.22" y2="192.67"/>
		<line class="st1" x1="68.44" y1="-12.67" x2="68.44" y2="192.67"/>
		<line class="st1" x1="74.67" y1="-12.67" x2="74.67" y2="192.67"/>
		<line class="st1" x1="80.89" y1="-12.67" x2="80.89" y2="192.67"/>
		<line class="st1" x1="87.11" y1="-12.67" x2="87.11" y2="192.67"/>
		<line class="st1" x1="93.33" y1="-12.67" x2="93.33" y2="192.67"/>
		<line class="st1" x1="99.56" y1="-12.67" x2="99.56" y2="192.67"/>
		<line class="st1" x1="105.78" y1="-12.67" x2="105.78" y2="192.67"/>
		<line class="st1" x1="112" y1="-12.67" x2="112" y2="192.67"/>
		<line class="st1" x1="118.22" y1="-12.67" x2="118.22" y2="192.67"/>
		<line class="st1" x1="124.44" y1="-12.67" x2="124.44" y2="192.67"/>
		<line class="st1" x1="130.67" y1="-12.67" x2="130.67" y2="192.67"/>
		<line class="st1" x1="136.89" y1="-12.67" x2="136.89" y2="192.67"/>
		<line class="st1" x1="143.11" y1="-12.67" x2="143.11" y2="192.67"/>
		<line class="st1" x1="149.33" y1="-12.67" x2="149.33" y2="192.67"/>
		<line class="st1" x1="155.56" y1="-12.67" x2="155.56" y2="192.67"/>
		<line class="st1" x1="161.78" y1="-12.67" x2="161.78" y2="192.67"/>
		<line class="st1" x1="168" y1="-12.67" x2="168" y2="192.67"/>
		<line class="st1" x1="174.22" y1="-12.67" x2="174.22" y2="192.67"/>
	</g>
</g>
</svg>
