<?xml version="1.0" encoding="utf-8"?>
<!-- Generator: Adobe Illustrator 24.2.0, SVG Export Plug-In . SVG Version: 6.00 Build 0)  -->
<svg version="1.1" id="Layer_1" xmlns="http://www.w3.org/2000/svg" xmlns:xlink="http://www.w3.org/1999/xlink" x="0px" y="0px"
	 viewBox="0 0 177.48 180" style="enable-background:new 0 0 177.48 180;" xml:space="preserve">
<style type="text/css">
	.st0{fill:#231F20;}
	.st1{fill:none;stroke:#231F20;stroke-miterlimit:10;}
	.st2{clip-path:url(#SVGID_2_);}
	.st3{clip-path:url(#SVGID_4_);}
	.st4{clip-path:url(#SVGID_6_);}
</style>
<g>
	<defs>
		<polygon id="SVGID_3_" points="83.34,4.29 3.7,4.29 3.66,4.34 3.66,84.07 95.29,175.71 174.98,175.71 175.02,175.66 175.02,95.97 
					"/>
	</defs>
	<clipPath id="SVGID_2_">
		<use xlink:href="#SVGID_3_"  style="overflow:visible;"/>
	</clipPath>
	<g class="st2">
		<path class="st1" d="M-13.22-8.82C7.92-12.34,10.72,4.44,31.85,0.91c21.14-3.52,18.34-20.3,39.48-23.82
			c21.14-3.52,23.94,13.25,45.08,9.73S134.76-33.48,155.9-37"/>
		<path class="st1" d="M-11.82-0.43C9.32-3.95,12.11,12.82,33.25,9.3C54.39,5.78,51.6-11,72.73-14.52
			c21.14-3.52,23.94,13.25,45.08,9.73s18.35-20.3,39.49-23.82"/>
		<path class="st1" d="M-10.42,7.96c21.14-3.52,23.93,13.25,45.07,9.73c21.14-3.52,18.34-20.3,39.48-23.82
			C95.27-9.65,98.07,7.12,119.21,3.6s18.35-20.3,39.49-23.82"/>
		<path class="st1" d="M-9.03,16.35c21.14-3.52,23.93,13.25,45.07,9.73c21.14-3.52,18.34-20.3,39.48-23.82
			c21.14-3.52,23.94,13.25,45.08,9.73s18.35-20.3,39.49-23.82"/>
		<path class="st1" d="M-7.63,24.73c21.14-3.52,23.93,13.25,45.07,9.73c21.14-3.52,18.34-20.3,39.48-23.82
			C98.07,7.12,100.86,23.9,122,20.38s18.35-20.3,39.49-23.82"/>
		<path class="st1" d="M-6.23,33.12c21.14-3.52,23.93,13.25,45.07,9.73c21.14-3.52,18.34-20.3,39.48-23.82
			c21.14-3.52,23.94,13.25,45.08,9.73s18.35-20.3,39.49-23.82"/>
		<path class="st1" d="M-4.83,41.51c21.14-3.52,23.93,13.25,45.07,9.73c21.14-3.52,18.34-20.3,39.48-23.82
			c21.14-3.52,23.94,13.25,45.08,9.73s18.35-20.3,39.49-23.82"/>
		<path class="st1" d="M-3.43,49.9c21.14-3.52,23.93,13.25,45.07,9.73c21.14-3.52,18.34-20.3,39.48-23.82
			c21.14-3.52,23.94,13.25,45.08,9.73s18.35-20.3,39.49-23.82"/>
		<path class="st1" d="M-2.04,58.29c21.14-3.52,23.93,13.25,45.07,9.73c21.14-3.52,18.34-20.3,39.48-23.82
			c21.14-3.52,23.94,13.25,45.08,9.73c21.14-3.52,18.35-20.3,39.49-23.82"/>
		<path class="st1" d="M-0.64,66.68c21.14-3.52,23.93,13.25,45.07,9.73c21.14-3.52,18.34-20.3,39.48-23.82
			c21.14-3.52,23.94,13.25,45.08,9.73c21.14-3.52,18.35-20.3,39.49-23.82"/>
		<path class="st1" d="M0.76,75.06c21.14-3.52,23.93,13.25,45.07,9.73c21.14-3.52,18.34-20.3,39.48-23.82
			c21.14-3.52,23.94,13.25,45.08,9.73c21.14-3.52,18.35-20.3,39.49-23.82"/>
		<path class="st1" d="M2.16,83.45c21.14-3.52,23.93,13.25,45.07,9.73c21.14-3.52,18.34-20.3,39.48-23.82
			c21.14-3.52,23.94,13.25,45.08,9.73s18.35-20.3,39.49-23.82"/>
		<path class="st1" d="M3.55,91.84c21.14-3.52,23.93,13.25,45.07,9.73c21.14-3.52,18.34-20.3,39.48-23.82
			c21.14-3.52,23.94,13.25,45.08,9.73c21.14-3.52,18.35-20.3,39.49-23.82"/>
		<path class="st1" d="M4.95,100.23c21.14-3.52,23.93,13.25,45.07,9.73c21.14-3.52,18.34-20.3,39.48-23.82
			c21.14-3.52,23.94,13.25,45.08,9.73c21.14-3.52,18.35-20.3,39.49-23.82"/>
		<path class="st1" d="M6.35,108.62c21.14-3.52,23.93,13.25,45.07,9.73c21.14-3.52,18.34-20.3,39.48-23.82
			c21.14-3.52,23.94,13.25,45.08,9.73c21.14-3.52,18.35-20.3,39.49-23.82"/>
		<path class="st1" d="M7.75,117.01c21.14-3.52,23.93,13.25,45.07,9.73c21.14-3.52,18.34-20.3,39.48-23.82
			c21.14-3.52,23.94,13.25,45.08,9.73c21.14-3.52,18.35-20.3,39.49-23.82"/>
		<path class="st1" d="M9.15,125.39c21.14-3.52,23.93,13.25,45.07,9.73c21.14-3.52,18.34-20.3,39.48-23.82
			c21.14-3.52,23.94,13.25,45.08,9.73s18.35-20.3,39.49-23.82"/>
		<path class="st1" d="M10.54,133.78c21.14-3.52,23.93,13.25,45.07,9.73c21.14-3.52,18.34-20.3,39.48-23.82
			c21.14-3.52,23.94,13.25,45.08,9.73c21.14-3.52,18.35-20.3,39.49-23.82"/>
		<path class="st1" d="M11.94,142.17c21.14-3.52,23.93,13.25,45.07,9.73c21.14-3.52,18.34-20.3,39.48-23.82
			c21.14-3.52,23.94,13.25,45.08,9.73s18.35-20.3,39.49-23.82"/>
		<path class="st1" d="M13.34,150.56c21.14-3.52,23.93,13.25,45.07,9.73c21.14-3.52,18.34-20.3,39.48-23.82
			c21.14-3.52,23.94,13.25,45.08,9.73s18.35-20.3,39.49-23.82"/>
		<path class="st1" d="M14.74,158.95c21.14-3.52,23.93,13.25,45.07,9.73c21.14-3.52,18.34-20.3,39.48-23.82
			c21.14-3.52,23.94,13.25,45.08,9.73c21.14-3.52,18.35-20.3,39.49-23.82"/>
		<path class="st1" d="M16.13,167.33c21.14-3.52,23.93,13.25,45.07,9.73c21.14-3.52,18.34-20.3,39.48-23.82
			c21.14-3.52,23.94,13.25,45.08,9.73c21.14-3.52,18.35-20.3,39.49-23.82"/>
		<path class="st1" d="M17.53,175.72c21.14-3.52,23.93,13.25,45.07,9.73c21.14-3.52,18.34-20.3,39.48-23.82
			c21.14-3.52,23.94,13.25,45.08,9.73c21.14-3.52,18.35-20.3,39.49-23.82"/>
		<path class="st1" d="M18.93,184.11c21.14-3.52,23.93,13.25,45.07,9.73c21.14-3.52,18.34-20.3,39.48-23.82
			c21.14-3.52,23.94,13.25,45.08,9.73s18.35-20.3,39.49-23.82"/>
		<path class="st1" d="M20.33,192.5c21.14-3.52,23.93,13.25,45.07,9.73c21.14-3.52,18.34-20.3,39.48-23.82
			c21.14-3.52,23.94,13.25,45.08,9.73s18.35-20.3,39.49-23.82"/>
		<path class="st1" d="M21.73,200.89c21.14-3.52,23.93,13.25,45.07,9.73c21.14-3.52,18.34-20.3,39.48-23.82
			c21.14-3.52,23.94,13.25,45.08,9.73c21.14-3.52,18.35-20.3,39.49-23.82"/>
	</g>
</g>
</svg>
