<svg id="Layer_1" data-name="Layer 1" xmlns="http://www.w3.org/2000/svg" xmlns:xlink="http://www.w3.org/1999/xlink" viewBox="0 0 177.48 180"><defs><clipPath id="clip-path"><polygon points="83.34 4.29 3.71 4.29 3.66 4.34 3.66 84.07 95.29 175.71 174.98 175.71 175.02 175.66 175.02 95.97 83.34 4.29" style="fill:none"/></clipPath></defs><g style="clip-path:url(#clip-path)"><path d="M-13.22-8.82C7.92-12.34,10.72,4.44,31.85.91S50.2-19.39,71.34-22.91s23.93,13.26,45.07,9.73S134.76-33.48,155.9-37" style="fill:none;stroke:#231f20;stroke-miterlimit:10"/><path d="M-11.82-.43C9.32-3.95,12.11,12.82,33.25,9.3S51.6-11,72.73-14.52,96.67-1.27,117.81-4.79s18.35-20.3,39.49-23.82" style="fill:none;stroke:#231f20;stroke-miterlimit:10"/><path d="M-10.42,8c21.14-3.52,23.93,13.25,45.07,9.73S53-2.61,74.13-6.13,98.07,7.12,119.21,3.6s18.34-20.3,39.49-23.82" style="fill:none;stroke:#231f20;stroke-miterlimit:10"/><path d="M-9,16.35c21.14-3.53,23.94,13.25,45.08,9.73S54.39,5.78,75.53,2.26,99.47,15.51,120.61,12,139-8.31,160.09-11.83" style="fill:none;stroke:#231f20;stroke-miterlimit:10"/><path d="M-7.63,24.73C13.51,21.21,16.31,38,37.45,34.47s18.34-20.3,39.48-23.83S100.86,23.9,122,20.38,140.35.08,161.49-3.45" style="fill:none;stroke:#231f20;stroke-miterlimit:10"/><path d="M-6.23,33.12C14.91,29.6,17.7,46.38,38.84,42.85S57.19,22.56,78.32,19s23.94,13.26,45.08,9.73,18.35-20.3,39.49-23.82" style="fill:none;stroke:#231f20;stroke-miterlimit:10"/><path d="M-4.83,41.51C16.31,38,19.1,54.76,40.24,51.24s18.34-20.3,39.48-23.82,23.94,13.25,45.08,9.73,18.35-20.3,39.49-23.82" style="fill:none;stroke:#231f20;stroke-miterlimit:10"/><path d="M-3.43,49.9C17.7,46.38,20.5,63.15,41.64,59.63S60,39.33,81.12,35.81s23.94,13.25,45.08,9.73,18.34-20.3,39.48-23.82" style="fill:none;stroke:#231f20;stroke-miterlimit:10"/><path d="M-2,58.29C19.1,54.76,21.9,71.54,43,68S61.38,47.72,82.52,44.2s23.93,13.25,45.08,9.73,18.34-20.3,39.48-23.82" style="fill:none;stroke:#231f20;stroke-miterlimit:10"/><path d="M-.64,66.68C20.5,63.15,23.3,79.93,44.43,76.41s18.35-20.3,39.49-23.82S107.85,65.84,129,62.32,147.34,42,168.48,38.49" style="fill:none;stroke:#231f20;stroke-miterlimit:10"/><path d="M.76,75.06C21.9,71.54,24.69,88.32,45.83,84.8S64.18,64.5,85.31,61s23.94,13.26,45.08,9.74,18.35-20.3,39.49-23.83" style="fill:none;stroke:#231f20;stroke-miterlimit:10"/><path d="M2.16,83.45c21.14-3.52,23.93,13.26,45.07,9.73s18.34-20.3,39.48-23.82,23.94,13.26,45.08,9.73,18.34-20.3,39.49-23.82" style="fill:none;stroke:#231f20;stroke-miterlimit:10"/><path d="M3.55,91.84c21.14-3.52,23.94,13.25,45.08,9.73S67,81.27,88.11,77.75,112.05,91,133.19,87.48s18.34-20.3,39.48-23.82" style="fill:none;stroke:#231f20;stroke-miterlimit:10"/><path d="M5,100.23C26.09,96.71,28.89,113.48,50,110s18.34-20.3,39.48-23.82,23.93,13.25,45.07,9.73,18.35-20.3,39.49-23.82" style="fill:none;stroke:#231f20;stroke-miterlimit:10"/><path d="M6.35,108.62c21.14-3.53,23.93,13.25,45.07,9.73S69.77,98.05,90.9,94.53s23.94,13.25,45.08,9.73S154.33,84,175.47,80.44" style="fill:none;stroke:#231f20;stroke-miterlimit:10"/><path d="M7.75,117c21.14-3.53,23.93,13.25,45.07,9.73s18.34-20.3,39.48-23.82,23.94,13.25,45.08,9.73,18.35-20.3,39.49-23.83" style="fill:none;stroke:#231f20;stroke-miterlimit:10"/><path d="M9.15,125.39c21.13-3.52,23.93,13.26,45.07,9.74s18.34-20.3,39.48-23.83,23.94,13.26,45.08,9.73,18.34-20.29,39.48-23.82" style="fill:none;stroke:#231f20;stroke-miterlimit:10"/><path d="M10.54,133.78c21.14-3.52,23.94,13.26,45.08,9.73S74,123.21,95.1,119.69,119,133,140.18,129.42s18.34-20.3,39.48-23.82" style="fill:none;stroke:#231f20;stroke-miterlimit:10"/><path d="M11.94,142.17c21.14-3.52,23.94,13.25,45.07,9.73s18.35-20.3,39.49-23.82,23.93,13.25,45.07,9.73,18.35-20.3,39.49-23.82" style="fill:none;stroke:#231f20;stroke-miterlimit:10"/><path d="M13.34,150.56c21.14-3.52,23.93,13.25,45.07,9.73S76.75,140,97.89,136.47s23.94,13.25,45.08,9.73,18.35-20.3,39.49-23.82" style="fill:none;stroke:#231f20;stroke-miterlimit:10"/><path d="M14.74,159c21.14-3.53,23.93,13.25,45.07,9.73s18.34-20.3,39.48-23.82,23.94,13.25,45.08,9.73,18.34-20.3,39.49-23.82" style="fill:none;stroke:#231f20;stroke-miterlimit:10"/><path d="M16.13,167.33c21.14-3.52,23.94,13.26,45.08,9.74s18.34-20.3,39.48-23.82,23.94,13.25,45.08,9.73,18.34-20.3,39.48-23.83" style="fill:none;stroke:#231f20;stroke-miterlimit:10"/><path d="M17.53,175.72c21.14-3.52,23.94,13.26,45.08,9.73S81,165.16,102.09,161.63s23.93,13.26,45.07,9.73,18.35-20.29,39.49-23.82" style="fill:none;stroke:#231f20;stroke-miterlimit:10"/><path d="M18.93,184.11c21.14-3.52,23.93,13.26,45.07,9.73s18.35-20.3,39.48-23.82,23.94,13.26,45.08,9.73,18.35-20.3,39.49-23.82" style="fill:none;stroke:#231f20;stroke-miterlimit:10"/><path d="M20.33,192.5c21.14-3.52,23.93,13.25,45.07,9.73s18.34-20.3,39.48-23.82,23.94,13.25,45.08,9.73,18.35-20.3,39.49-23.82" style="fill:none;stroke:#231f20;stroke-miterlimit:10"/><path d="M21.73,200.89c21.13-3.52,23.93,13.25,45.07,9.73s18.34-20.3,39.48-23.82,23.94,13.25,45.08,9.73,18.34-20.3,39.48-23.82" style="fill:none;stroke:#231f20;stroke-miterlimit:10"/></g></svg>